<?xml version="1.0" encoding="utf-8"?>
<svg xmlns="http://www.w3.org/2000/svg" viewBox="72.867 -490.69 850 509.997" width="850px" height="509.997px">
  <defs>
    <marker id="arrowhead" markerWidth="10" markerHeight="10" refX="9" refY="3" orient="auto">
      <polygon points="0 0, 10 3, 0 6" fill="#666"/>
    </marker>
  </defs>
  <rect x="72.867" y="-490.69" width="200" height="100" class="box rules" rx="8" style="fill: rgb(74, 144, 226); stroke: rgb(51, 51, 51); stroke-width: 2;" transform="matrix(1, 0, 0, 1, 0, 1.1368683772161603e-13)"/>
  <text x="172.867" y="-465.69" class="text title" fill="#fff" style="white-space: pre; fill: rgb(51, 51, 51); font-family: Consolas, Monaco, monospace; font-weight: 700; text-anchor: middle; stroke-width: 1; font-size: 16px;" transform="matrix(1, 0, 0, 1, 0, 1.1368683772161603e-13)">1. Alert Rules</text>
  <text x="172.867" y="-440.69" class="text code" fill="#fff" style="font-size: 10px; white-space: pre; fill: rgb(51, 51, 51); font-family: &quot;Courier New&quot;, monospace; text-anchor: middle; stroke-width: 1;" transform="matrix(1, 0, 0, 1, 0, 1.1368683772161603e-13)">alert: HighErrorRate</text>
  <text x="172.867" y="-422.69" class="text code" fill="#fff" style="font-size: 10px; white-space: pre; fill: rgb(51, 51, 51); font-family: &quot;Courier New&quot;, monospace; text-anchor: middle; stroke-width: 1;" transform="matrix(1, 0, 0, 1, 0, 1.1368683772161603e-13)">expr: job:request_errors</text>
  <text x="172.867" y="-404.69" class="text code" fill="#fff" style="font-size: 10px; white-space: pre; fill: rgb(51, 51, 51); font-family: &quot;Courier New&quot;, monospace; text-anchor: middle; stroke-width: 1;" transform="matrix(1, 0, 0, 1, 0, 1.1368683772161603e-13)">&gt; 0.05</text>
  <rect x="332.867" y="-490.69" width="200" height="100" class="box prometheus" rx="8" style="fill: rgb(230, 82, 44); stroke: rgb(51, 51, 51); stroke-width: 2;" transform="matrix(1, 0, 0, 1, 0, 1.1368683772161603e-13)"/>
  <text x="432.867" y="-465.69" class="text title" fill="#fff" style="white-space: pre; fill: rgb(51, 51, 51); font-family: Consolas, Monaco, monospace; font-weight: 700; text-anchor: middle; stroke-width: 1; font-size: 16px;" transform="matrix(1, 0, 0, 1, 0, 1.1368683772161603e-13)">2. Prometheus</text>
  <text x="432.867" y="-440.69" class="text" fill="#fff" style="font-size: 12px; white-space: pre; fill: rgb(51, 51, 51); font-family: Consolas, Monaco, monospace; text-anchor: middle; stroke-width: 1;" transform="matrix(1, 0, 0, 1, 0, 1.1368683772161603e-13)">Evaluates rules</text>
  <text x="432.867" y="-420.69" class="text" fill="#fff" style="font-size: 12px; white-space: pre; fill: rgb(51, 51, 51); font-family: Consolas, Monaco, monospace; text-anchor: middle; stroke-width: 1;" transform="matrix(1, 0, 0, 1, 0, 1.1368683772161603e-13)">every 15-60 seconds</text>
  <text x="432.867" y="-400.69" class="text" fill="#fff" style="font-size: 12px; white-space: pre; fill: rgb(51, 51, 51); font-family: Consolas, Monaco, monospace; text-anchor: middle; stroke-width: 1;" transform="matrix(1, 0, 0, 1, 0, 1.1368683772161603e-13)">Fires matching alerts</text>
  <rect x="592.867" y="-490.69" width="200" height="100" class="box alertmanager" rx="8" style="fill: rgb(255, 87, 34); stroke: rgb(51, 51, 51); stroke-width: 2;" transform="matrix(1, 0, 0, 1, 0, 1.1368683772161603e-13)"/>
  <text x="692.867" y="-465.69" class="text title" fill="#fff" style="white-space: pre; fill: rgb(51, 51, 51); font-family: Consolas, Monaco, monospace; font-weight: 700; text-anchor: middle; stroke-width: 1; font-size: 16px;" transform="matrix(1, 0, 0, 1, 0, 1.1368683772161603e-13)">3. Alertmanager</text>
  <text x="692.867" y="-440.69" class="text" fill="#fff" style="font-size: 12px; white-space: pre; fill: rgb(51, 51, 51); font-family: Consolas, Monaco, monospace; text-anchor: middle; stroke-width: 1;" transform="matrix(1, 0, 0, 1, 0, 1.1368683772161603e-13)">Receives alerts</text>
  <text x="692.867" y="-420.69" class="text" fill="#fff" style="font-size: 12px; white-space: pre; fill: rgb(51, 51, 51); font-family: Consolas, Monaco, monospace; text-anchor: middle; stroke-width: 1;" transform="matrix(1, 0, 0, 1, 0, 1.1368683772161603e-13)">Groups &amp; deduplicates</text>
  <text x="692.867" y="-400.69" class="text" fill="#fff" style="font-size: 12px; white-space: pre; fill: rgb(51, 51, 51); font-family: Consolas, Monaco, monospace; text-anchor: middle; stroke-width: 1;" transform="matrix(1, 0, 0, 1, 0, 1.1368683772161603e-13)">Routes to receivers</text>
  <text x="522.867" y="-340.69" class="text title" style="font-size: 18px; white-space: pre; fill: rgb(51, 51, 51); font-family: Consolas, Monaco, monospace; font-weight: 700; text-anchor: middle; stroke-width: 1;" transform="matrix(1, 0, 0, 1, 0, 1.1368683772161603e-13)">Alertmanager Capabilities</text>
  <g id="features" transform="matrix(1, 0, 0, 1, 22.867124557495117, -610.693359375)">
    <rect x="80" y="300" width="180" height="80" class="box feature" rx="5" style="fill: rgb(124, 179, 66); stroke: rgb(51, 51, 51); stroke-width: 2px;"/>
    <text x="170" y="325" class="text title" fill="#fff" style="white-space: pre; fill: rgb(51, 51, 51); font-family: Consolas, Monaco, monospace; font-weight: 700; text-anchor: middle;">Grouping</text>
    <text x="170" y="348" class="text" fill="#fff" style="font-size: 11px; white-space: pre; fill: rgb(51, 51, 51); font-family: Consolas, Monaco, monospace; text-anchor: middle;">Combines similar alerts</text>
    <text x="170" y="365" class="text" fill="#fff" style="font-size: 11px; white-space: pre; fill: rgb(51, 51, 51); font-family: Consolas, Monaco, monospace; text-anchor: middle;">into single notification</text>
    <rect x="280" y="300" width="180" height="80" class="box feature" rx="5" style="fill: rgb(124, 179, 66); stroke: rgb(51, 51, 51); stroke-width: 2px;"/>
    <text x="370" y="325" class="text title" fill="#fff" style="white-space: pre; fill: rgb(51, 51, 51); font-family: Consolas, Monaco, monospace; font-weight: 700; text-anchor: middle;">Inhibition</text>
    <text x="370" y="348" class="text" fill="#fff" style="font-size: 11px; white-space: pre; fill: rgb(51, 51, 51); font-family: Consolas, Monaco, monospace; text-anchor: middle;">Suppresses alerts when</text>
    <text x="370" y="365" class="text" fill="#fff" style="font-size: 11px; white-space: pre; fill: rgb(51, 51, 51); font-family: Consolas, Monaco, monospace; text-anchor: middle;">related alerts are firing</text>
    <rect x="480" y="300" width="180" height="80" class="box feature" rx="5" style="fill: rgb(124, 179, 66); stroke: rgb(51, 51, 51); stroke-width: 2px;"/>
    <text x="570" y="325" class="text title" fill="#fff" style="white-space: pre; fill: rgb(51, 51, 51); font-family: Consolas, Monaco, monospace; font-weight: 700; text-anchor: middle;">Silencing</text>
    <text x="570" y="348" class="text" fill="#fff" style="font-size: 11px; white-space: pre; fill: rgb(51, 51, 51); font-family: Consolas, Monaco, monospace; text-anchor: middle;">Mutes alerts during</text>
    <text x="570" y="365" class="text" fill="#fff" style="font-size: 11px; white-space: pre; fill: rgb(51, 51, 51); font-family: Consolas, Monaco, monospace; text-anchor: middle;">maintenance windows</text>
    <rect x="680" y="300" width="180" height="80" class="box feature" rx="5" style="fill: rgb(124, 179, 66); stroke: rgb(51, 51, 51); stroke-width: 2px;"/>
    <text x="770" y="325" class="text title" fill="#fff" style="white-space: pre; fill: rgb(51, 51, 51); font-family: Consolas, Monaco, monospace; font-weight: 700; text-anchor: middle;">Routing</text>
    <text x="770" y="348" class="text" fill="#fff" style="font-size: 11px; white-space: pre; fill: rgb(51, 51, 51); font-family: Consolas, Monaco, monospace; text-anchor: middle;">Sends to different teams</text>
    <text x="770" y="365" class="text" fill="#fff" style="font-size: 11px; white-space: pre; fill: rgb(51, 51, 51); font-family: Consolas, Monaco, monospace; text-anchor: middle;">based on labels</text>
  </g>
  <text x="504.465" y="-58.78" class="text title" style="font-size: 18px; white-space: pre; fill: rgb(51, 51, 51); font-family: Consolas, Monaco, monospace; font-weight: 700; text-anchor: middle; stroke-width: 1;" transform="matrix(1, 0, 0, 1, 0, 1.1368683772161603e-13)">Notification Channels</text>
  <g id="notifications" transform="matrix(1, 0, 0, 1, 22.867124557495117, -610.693359375)">
    <rect x="80" y="460" width="130" height="70" class="box notification" rx="5" style="fill: rgb(156, 39, 176); stroke: rgb(51, 51, 51); stroke-width: 2px;"/>
    <text x="145" y="485" class="text title" fill="#fff" style="white-space: pre; fill: rgb(51, 51, 51); font-family: Consolas, Monaco, monospace; font-weight: 700; text-anchor: middle;">Email</text>
    <text x="145" y="508" class="text" fill="#fff" style="font-size: 11px; white-space: pre; fill: rgb(51, 51, 51); font-family: Consolas, Monaco, monospace; text-anchor: middle;">SMTP</text>
    <rect x="230" y="460" width="130" height="70" class="box notification" rx="5" style="fill: rgb(156, 39, 176); stroke: rgb(51, 51, 51); stroke-width: 2px;"/>
    <text x="295" y="485" class="text title" fill="#fff" style="white-space: pre; fill: rgb(51, 51, 51); font-family: Consolas, Monaco, monospace; font-weight: 700; text-anchor: middle;">Slack</text>
    <text x="295" y="508" class="text" fill="#fff" style="font-size: 11px; white-space: pre; fill: rgb(51, 51, 51); font-family: Consolas, Monaco, monospace; text-anchor: middle;">Webhook</text>
    <rect x="380" y="460" width="130" height="70" class="box notification" rx="5" style="fill: rgb(156, 39, 176); stroke: rgb(51, 51, 51); stroke-width: 2px;"/>
    <text x="445" y="485" class="text title" fill="#fff" style="white-space: pre; fill: rgb(51, 51, 51); font-family: Consolas, Monaco, monospace; font-weight: 700; text-anchor: middle;">PagerDuty</text>
    <text x="445" y="508" class="text" fill="#fff" style="font-size: 11px; white-space: pre; fill: rgb(51, 51, 51); font-family: Consolas, Monaco, monospace; text-anchor: middle;">API Integration</text>
    <rect x="530" y="460" width="130" height="70" class="box notification" rx="5" style="fill: rgb(156, 39, 176); stroke: rgb(51, 51, 51); stroke-width: 2px;"/>
    <text x="595" y="485" class="text title" fill="#fff" style="white-space: pre; fill: rgb(51, 51, 51); font-family: Consolas, Monaco, monospace; font-weight: 700; text-anchor: middle;">Webhook</text>
    <text x="595" y="508" class="text" fill="#fff" style="font-size: 11px; white-space: pre; fill: rgb(51, 51, 51); font-family: Consolas, Monaco, monospace; text-anchor: middle;">Custom HTTP</text>
    <rect x="680" y="460" width="130" height="70" class="box notification" rx="5" style="fill: rgb(156, 39, 176); stroke: rgb(51, 51, 51); stroke-width: 2px;"/>
    <text x="745" y="485" class="text title" fill="#fff" style="white-space: pre; fill: rgb(51, 51, 51); font-family: Consolas, Monaco, monospace; font-weight: 700; text-anchor: middle;">OpsGenie</text>
    <text x="745" y="508" class="text" fill="#fff" style="font-size: 11px; white-space: pre; fill: rgb(51, 51, 51); font-family: Consolas, Monaco, monospace; text-anchor: middle;">API Integration</text>
  </g>
  <rect x="122.867" y="-40.693" width="800" height="60" class="box" fill="#f5f5f5" rx="5" style="fill: rgb(255, 255, 255); stroke: rgb(51, 51, 51); stroke-width: 2;" transform="matrix(1, 0, 0, 1, 0, 1.1368683772161603e-13)"/>
  <text x="522.867" y="-17.693" class="text title" style="font-size: 13px; white-space: pre; fill: rgb(51, 51, 51); font-family: Consolas, Monaco, monospace; font-weight: 700; text-anchor: middle; stroke-width: 1;" transform="matrix(1, 0, 0, 1, 0, 1.1368683772161603e-13)">Alert Flow Example</text>
  <text x="522.867" y="2.307" class="text" style="font-size: 11px; white-space: pre; fill: rgb(51, 51, 51); font-family: Consolas, Monaco, monospace; text-anchor: middle; stroke-width: 1;" transform="matrix(1, 0, 0, 1, 0, 1.1368683772161603e-13)">Metric exceeds threshold → Prometheus fires alert → Alertmanager groups &amp; routes → Notification sent to on-call team</text>
  <path d="M 272.867 -440.69 C 286.2 -440.69 299.534 -440.69 312.867 -440.69 C 326.2 -440.69 332.867 -440.69 332.867 -440.69" class="arrow" style="fill: none; marker-end: url(&quot;#arrowhead&quot;); stroke: rgb(102, 102, 102); stroke-width: 2;" transform="matrix(1, 0, 0, 1, 0, 1.1368683772161603e-13)"/>
  <text x="302.867" y="-445.69" class="label" style="white-space: pre; fill: rgb(102, 102, 102); font-size: 11px; line-height: 17.6px; stroke-width: 1;" transform="matrix(1, 0, 0, 1, 0, 1.1368683772161603e-13)">sends rules</text>
  <path d="M 532.867 -440.69 C 546.2 -440.69 559.534 -440.69 572.867 -440.69 C 586.2 -440.69 592.867 -440.69 592.867 -440.69" class="arrow" style="fill: none; marker-end: url(&quot;#arrowhead&quot;); stroke: rgb(102, 102, 102); stroke-width: 2;" transform="matrix(1, 0, 0, 1, 0, 1.1368683772161603e-13)"/>
  <text x="562.867" y="-445.69" class="label" style="white-space: pre; fill: rgb(102, 102, 102); font-size: 11px; line-height: 17.6px; stroke-width: 1;" transform="matrix(1, 0, 0, 1, 0, 1.1368683772161603e-13)">fires alerts</text>
  <path d="M 692.867 -390.69 C 692.867 -377.36 692.867 -364.03 692.867 -350.69 C 692.867 -337.36 692.867 -330.69 692.867 -330.69" class="arrow" style="fill: none; marker-end: url(&quot;#arrowhead&quot;); stroke: rgb(102, 102, 102); stroke-width: 2;" transform="matrix(1, 0, 0, 1, 0, 1.1368683772161603e-13)"/>
  <text x="722.867" y="-360.69" class="label" style="white-space: pre; fill: rgb(102, 102, 102); font-size: 11px; line-height: 17.6px; stroke-width: 1;" transform="matrix(1, 0, 0, 1, 0, 1.1368683772161603e-13)">processes</text>
  <path d="M 192.867 -230.69 C 192.867 -214.03 192.867 -197.36 192.867 -180.69 C 192.867 -164.03 184.534 -154.03 167.867 -150.69" class="arrow" style="fill: none; marker-end: url(&quot;#arrowhead&quot;); stroke: rgb(102, 102, 102); stroke-width: 2;" transform="matrix(1, 0, 0, 1, 0, 1.1368683772161603e-13)"/>
  <path d="M 392.867 -230.69 C 372.867 -214.03 356.2 -197.36 342.867 -180.69 C 329.534 -164.03 321.2 -154.03 317.867 -150.69" class="arrow" style="fill: none; marker-end: url(&quot;#arrowhead&quot;); stroke: rgb(102, 102, 102); stroke-width: 2;" transform="matrix(1, 0, 0, 1, 0, 1.1368683772161603e-13)"/>
  <path d="M 592.867 -230.69 C 559.534 -214.03 529.534 -197.36 502.867 -180.69 C 476.2 -164.03 464.534 -154.03 467.867 -150.69" class="arrow" style="fill: none; marker-end: url(&quot;#arrowhead&quot;); stroke: rgb(102, 102, 102); stroke-width: 2;" transform="matrix(1, 0, 0, 1, 0, 1.1368683772161603e-13)"/>
  <path d="M 792.867 -230.69 C 759.534 -214.03 726.2 -197.36 692.867 -180.69 C 659.534 -164.03 634.534 -154.03 617.867 -150.69" class="arrow" style="fill: none; marker-end: url(&quot;#arrowhead&quot;); stroke: rgb(102, 102, 102); stroke-width: 2;" transform="matrix(1, 0, 0, 1, 0, 1.1368683772161603e-13)"/>
  <text x="422.867" y="-190.69" class="label" style="white-space: pre; fill: rgb(102, 102, 102); font-size: 11px; line-height: 17.6px; stroke-width: 1;" transform="matrix(1, 0, 0, 1, 0, 1.1368683772161603e-13)">routes to</text>

</svg>
